<svg xmlns="http://www.w3.org/2000/svg" viewBox="0 0 500 500"><g id="freepik--Graphics--inject-78"><g id="freepik--Icons--inject-78"><path d="M365.21,353.72H365c-8.13-.12-14.42-5.07-16-12.62a13.29,13.29,0,0,1,3.45-13.34c3.93-3.94,9.9-5.64,14.84-4.23,4.28,1.22,7.25,4.57,8.39,9.44a9.78,9.78,0,0,1-2.76,9.83,11.27,11.27,0,0,1-10.77,2.93c-3-.94-5-3.4-5.76-6.94a6.6,6.6,0,0,1,1.34-6.17,7.71,7.71,0,0,1,6.41-2.56,5.89,5.89,0,0,1,4.71,4.36,4.3,4.3,0,0,1-2.28,4.71,2.84,2.84,0,0,1-3.62-.51,2.08,2.08,0,0,1-.38-2.64A1,1,0,0,1,364.3,337a.85.85,0,0,0,.4.36.74.74,0,0,0,.73-.06,2.25,2.25,0,0,0,1.32-2.48,3.84,3.84,0,0,0-2.91-2.73,5.55,5.55,0,0,0-4.59,1.86,4.5,4.5,0,0,0-.88,4.33c.58,2.85,2.07,4.71,4.34,5.41a9.25,9.25,0,0,0,8.7-2.43,7.71,7.71,0,0,0,2.19-7.81c-1.24-5.3-4.46-7.24-6.94-7.95-4.17-1.19-9.43.33-12.79,3.69A11.16,11.16,0,0,0,351,340.6c1.7,8,8.35,10.95,14,11,6.25.09,13.84-3.46,15.76-11.43a1,1,0,0,1,2,.49C380.61,349.67,372.2,353.72,365.21,353.72Z" style="fill:#ebebeb"></path><path d="M83,376.4l.15.2c4.84,6.53,4.72,14.53-.31,20.38a13.27,13.27,0,0,1-12.7,5.35A15.65,15.65,0,0,1,57.8,393.1c-1.62-4.13-.76-8.54,2.42-12.4a9.78,9.78,0,0,1,9.49-3.76,11.24,11.24,0,0,1,8.85,6.78c1.08,2.95.37,6.07-2,8.79a6.61,6.61,0,0,1-5.72,2.68,7.71,7.71,0,0,1-5.92-3.54,5.9,5.9,0,0,1,.6-6.39,4.31,4.31,0,0,1,5.13-1.05,2.87,2.87,0,0,1,1.8,3.19,2.1,2.1,0,0,1-1.88,1.9,1,1,0,0,1-1.08-1,1,1,0,0,1,.84-1.07.83.83,0,0,0,.05-.53.72.72,0,0,0-.5-.54,2.24,2.24,0,0,0-2.77.45,3.84,3.84,0,0,0-.4,4A5.58,5.58,0,0,0,71,393.1a4.54,4.54,0,0,0,4-1.92c1.92-2.2,2.48-4.51,1.66-6.74A9.26,9.26,0,0,0,69.39,379a7.7,7.7,0,0,0-7.53,3c-3.46,4.2-3.06,7.93-2.11,10.33,1.59,4,6,7.3,10.69,7.93a11.15,11.15,0,0,0,10.8-4.58c5.35-6.23,3.63-13.29.26-17.84-3.72-5-11.14-8.9-18.64-5.59a1,1,0,1,1-.85-1.91C70.47,366.61,78.78,370.84,83,376.4Z" style="fill:#ebebeb"></path><path d="M410.27,105l-.17.24c-5.54,7.73-14.5,10.46-22.82,7A15.5,15.5,0,0,1,376.77,100c-1.16-6.4,1.19-13.27,5.85-17.08,4-3.29,9.24-3.91,14.68-1.75a11.43,11.43,0,0,1,7.59,9.22c.77,4.72-1,9.67-4.38,12.3-2.9,2.26-6.63,2.58-10.51.9a7.75,7.75,0,0,1-5-5.41,9.05,9.05,0,0,1,1.82-7.87,6.91,6.91,0,0,1,7.34-1.61,5,5,0,0,1,3,5.34,3.33,3.33,0,0,1-2.91,3.14,2.46,2.46,0,0,1-2.79-1.41,1.22,1.22,0,0,1,2.22-1,1,1,0,0,0,.61-.14.84.84,0,0,0,.43-.74,2.62,2.62,0,0,0-1.5-2.92,4.47,4.47,0,0,0-4.56,1,6.51,6.51,0,0,0-1.29,5.65,5.32,5.32,0,0,0,3.57,3.74c3.13,1.35,5.91,1.15,8.11-.56,2.66-2.07,4.08-6.17,3.47-10a9,9,0,0,0-6-7.32c-5.91-2.35-9.93-.56-12.27,1.35-3.93,3.22-6,9.29-5,14.76a13.08,13.08,0,0,0,9,10.38c8.86,3.73,16.1-.71,20-6.1,4.26-5.93,5.93-15.59-.45-22.77a1.22,1.22,0,1,1,1.83-1.62C416.67,87.49,414.94,98.27,410.27,105Z" style="fill:#ebebeb"></path><path d="M443.08,256l-.1-.12c-3.18-3.74-3.43-8.56-.63-12.29a8,8,0,0,1,7.44-3.74,9.48,9.48,0,0,1,7.82,5.07,7.29,7.29,0,0,1-1,7.57,5.91,5.91,0,0,1-5.57,2.65,6.82,6.82,0,0,1-5.61-3.73,5.17,5.17,0,0,1,.87-5.38,4,4,0,0,1,3.33-1.84,4.66,4.66,0,0,1,3.72,1.89,3.59,3.59,0,0,1-.11,3.88,2.59,2.59,0,0,1-3,.83,1.72,1.72,0,0,1-1.21-1.85,1.26,1.26,0,0,1,1.05-1.22.63.63,0,0,1,.23,1.24.54.54,0,0,0,0,.32.45.45,0,0,0,.32.31,1.36,1.36,0,0,0,1.65-.39,2.29,2.29,0,0,0,.09-2.4,3.35,3.35,0,0,0-2.67-1.35,2.73,2.73,0,0,0-2.32,1.32,3.93,3.93,0,0,0-.73,4.13,5.58,5.58,0,0,0,4.56,3,4.63,4.63,0,0,0,4.42-2.11,5.94,5.94,0,0,0,.86-6.31,8.28,8.28,0,0,0-6.77-4.35,6.75,6.75,0,0,0-6.32,3.2c-3,4-1.65,8.15.56,10.76,2.44,2.87,7.07,4.91,11.46,2.62a.63.63,0,1,1,.58,1.11C451,261.39,445.86,259.18,443.08,256Z" style="fill:#ebebeb"></path><path d="M89.78,170.84c0,.11.09.21.14.31,4.62,10,2.25,20.58-6,26.95a18,18,0,0,1-18.32,3.59C58.44,199.2,52.88,192.9,51.71,186c-1-5.93,1.34-11.53,6.62-15.77A13.24,13.24,0,0,1,72,167.88c5.19,1.93,9.16,6.53,9.87,11.44.62,4.22-1.19,8.16-5.1,11.1a8.94,8.94,0,0,1-8.32,2,10.42,10.42,0,0,1-6.88-6.33,8,8,0,0,1,2.57-8.31c2-1.59,4.63-1.58,7.09,0a3.87,3.87,0,0,1,1.5,4.73,2.84,2.84,0,0,1-3,2,1.42,1.42,0,0,1-1.15-1.63,1.4,1.4,0,0,1,1.41-1.18,1.19,1.19,0,0,0,.21-.69,1,1,0,0,0-.51-.86c-1.44-.95-2.72-1-3.8-.17a5.23,5.23,0,0,0-1.63,5.16,7.56,7.56,0,0,0,5,4.52A6.12,6.12,0,0,0,75,188.21c3.15-2.37,4.54-5.29,4.07-8.48-.56-3.86-3.87-7.64-8.06-9.19a10.42,10.42,0,0,0-10.82,1.89c-5.75,4.61-6.24,9.68-5.65,13.13,1,5.79,5.92,11.33,12,13.46a15.12,15.12,0,0,0,15.59-3.1c8.81-6.78,8.49-16.62,5.27-23.58-3.54-7.68-12.31-14.88-23.18-12.57a1.41,1.41,0,1,1-.59-2.76C75.82,154.39,85.68,162.3,89.78,170.84Z" style="fill:#ebebeb"></path><polygon points="402.64 182.67 410.64 175.21 403.67 161.69 417.14 169.15 426.1 160.79 423.99 171.66 436.71 179.32 422.32 180.26 418.22 193.75 413.97 181.28 402.64 182.67" style="fill:#e0e0e0"></polygon><polygon points="77.62 93.34 86.76 84.81 78.8 69.36 94.19 77.89 104.43 68.34 102.01 80.75 116.55 89.5 100.1 90.58 95.42 106 90.57 91.75 77.62 93.34" style="fill:#e0e0e0"></polygon><polygon points="411.49 382.83 416.21 378.43 412.09 370.44 420.05 374.85 425.34 369.92 424.09 376.33 431.6 380.85 423.1 381.41 420.69 389.38 418.18 382.01 411.49 382.83" style="fill:#e0e0e0"></polygon><polygon points="122.94 350.76 127.66 346.35 123.55 338.37 131.5 342.77 136.79 337.84 135.55 344.25 143.06 348.77 134.56 349.33 132.14 357.3 129.63 349.94 122.94 350.76" style="fill:#e0e0e0"></polygon><polygon points="35.65 261.33 40.38 256.93 36.26 248.94 44.21 253.35 49.5 248.41 48.26 254.83 55.77 259.35 47.27 259.9 44.85 267.87 42.34 260.51 35.65 261.33" style="fill:#e0e0e0"></polygon></g></g><g id="freepik--Shadow--inject-78"><ellipse id="freepik--shadow--inject-78" cx="246.65" cy="397.06" rx="104.38" ry="54.87" style="fill:#e0e0e0"></ellipse></g><g id="freepik--Character--inject-78"><g id="freepik--character--inject-78"><path d="M280.13,206.59c32.3,2.4,49,11.54,87.5,35.3,26.51,16.39,60.33,68.9,60.33,68.9s-10.67,9.12-47.48-6c-38.7-15.84-88.28-39.52-88.28-39.52Z" style="fill:#455a64"></path><path d="M339.59,168.31s-1.52-.3-2.66-3-1.41-4.75-2.63-7.79-4-7.94-7.1-7.71-2.82,7.25-1.49,12.66,2.1,8.6.05,15.63-1.33,15.19,4.25,21Z" style="fill:#f0997a"></path><path d="M365.84,258.19c9.47,20.49,11.09,25.39,15.45,33s8.22,11.3,15.12,15c7.71,4.12,13.29,6,21.71,6.75a16.61,16.61,0,0,0,7.37-.54c5.83-2.18,6.8-8.07,6.69-14.63-.23-13.24-3-24-8.94-33.79-2.79-4.64-4.33-6.64-13.63-17.88-7.57-9.14-13.54-15.55-23.9-29.1-9.4-12.29-17.92-24.38-21.42-32s-4.89-13.05-4.76-17.81c.19-7.25,1.33-7.31-3-14.69-3-4.83-4.6-11.5-6.28-15.53A46.57,46.57,0,0,0,343.44,126c-2.88-3.69-5.7-8.78-7.36-8.92s-3.8,2.22-2.8,5.48c0,0-2.64-1.89-5-4s-4.39-4.91-6.94-4.82-2.7,4.13-1.15,6.52,2.62,3.69,2.62,3.69-2.07,1.69,1.27,5.82a24.72,24.72,0,0,0,4.73,4.38c1.77,3.39,2.4,5.13,5,7.61,2,3.13,3.31,5.85,5.64,8.22-.18,2.7-1.42,6.19-.22,10.47s2.17,5.1-1.48,11.59c-2.45,4.38-7.18,9.9-9.08,15.54s-1.15,9.57,3,14.25c3.56,4,9.5,6,14.4,14.73C349.93,223.52,354.24,233.08,365.84,258.19Z" style="fill:#ffbda7"></path><path d="M343,145.92a18.72,18.72,0,0,1-.24-2,18.17,18.17,0,0,1,0-2,12.42,12.42,0,0,1,.21-1.89l.06-.33-.27-.31a15.08,15.08,0,0,1-2.67-4.16,17.49,17.49,0,0,1-.84-2.33,19.9,19.9,0,0,1-.47-2.4l0-.31-.15-.17c-1-1.13-1.95-2.34-2.86-3.58a26.81,26.81,0,0,1-2.43-4,13.17,13.17,0,0,0,1.47,4.13,31.41,31.41,0,0,0,2.93,4,12.28,12.28,0,0,0,.39,2.51,14.35,14.35,0,0,0,.89,2.61,12.7,12.7,0,0,0,2.8,4.18,19.78,19.78,0,0,0-.14,2,12.6,12.6,0,0,0,.17,2.05,11.47,11.47,0,0,0,1.71,3.76C343.31,147.21,343.12,146.57,343,145.92Z" style="fill:#f0997a"></path><path d="M338.79,144a30.11,30.11,0,0,1-1.34-2.89,27.24,27.24,0,0,1-1-3,17.24,17.24,0,0,1-.46-3l0-.56-.52-.22a14.57,14.57,0,0,1-4.48-3,20.63,20.63,0,0,1-3.4-4.33l-.14-.23-.15,0a18.62,18.62,0,0,1-2.36-1.11,13.45,13.45,0,0,1-2.17-1.55,7.57,7.57,0,0,0,1.67,1.82,15.29,15.29,0,0,0,2.52,1.48,17.47,17.47,0,0,0,1.28,2.56A15.29,15.29,0,0,0,330,132a14.64,14.64,0,0,0,2.32,2,13.58,13.58,0,0,0,2.47,1.32,20,20,0,0,0,.6,3.33,18.38,18.38,0,0,0,1.19,3.18,14.65,14.65,0,0,0,1.58,2.57,18.48,18.48,0,0,0,2.3,2.38C339.87,145.82,339.27,144.92,338.79,144Z" style="fill:#f0997a"></path><path d="M342.25,155.44a12.73,12.73,0,0,1,0,5.92,18.86,18.86,0,0,1-2.22,5.51c.17-1,.43-1.92.67-2.87s.47-1.88.67-2.82A44.57,44.57,0,0,0,342.25,155.44Z" style="fill:#f0997a"></path><path d="M331.39,181.45a24.12,24.12,0,0,0,1.5,10.37,18.46,18.46,0,0,0,2.59,4.48,39.69,39.69,0,0,0,3.65,4,14.64,14.64,0,0,1-4.72-3.08,14,14,0,0,1-3-15.76Z" style="fill:#f0997a"></path><g id="freepik--Chest--inject-78"><path id="freepik--chest--inject-78" d="M319.54,348.87c.83-18,.45-38.38.45-38.38s16.07-9.64,15.82-34.14c-.15-13.93-5.38-24-24.19-43.1-10.24-10.39-31.49-26.66-31.49-26.66l-17.77-2.4-58.68,1.2-21.42,3.82c-5.59,2.86-22.53,36.5-18.08,75,1.41,12.13,10.59,34.33,13.71,51.49-1.51,28.14-8.39,32.62-17.47,55.5,0,10.33,14.47,23.51,29.91,30.23,29.7,12.93,76.89,13.24,108.28,1.23,17.83-6.82,33.13-18.46,33.09-28.79C331.7,393.88,323.44,367.68,319.54,348.87Z" style="fill:#FF4F91"></path><path d="M269.2,316.08C249.5,329,209.74,321,199.89,296.89,198.07,321.27,243.92,346.77,269.2,316.08Z" style="opacity:0.2"></path></g><g id="freepik--Head--inject-78"><path d="M194.86,84.35a24.68,24.68,0,0,1,13-8.35c4.87-1.22,7.86-1.16,12.5-3.11,4.42-1.85,8.22-5,12.62-6.89,6.93-3,14.92-2.47,21.81.37s11.14,9.18,18.43,10.92c3.8.91,7.74,1.11,11.52,2.12a24.94,24.94,0,0,1,15.43,11.67,20.17,20.17,0,0,1,.35,19c-.92,1.7-2.15,3.33-2.33,5.25-.33,3.58,2.95,6.32,4.54,9.54,2.73,5.52.06,12.59-4.82,16.33s-11.36,4.73-17.51,4.53c-1.13,9.13-6.33,17.36-12.9,23.81A93.68,93.68,0,0,1,252.77,181c-4.85,3.15-9.31,4.71-14.64,6.8s-14.64,5.9-19.78,1.71c-2.07-1.69-3.32-4.16-4.64-6.49-4.84-8.49-11.38-15.85-17.5-23.47s-12-15.71-15-25a41.21,41.21,0,0,1-1.55-14.25c.25-4.68.91-9.94,2.82-13.7,2.71-5.32,5.4-7.79,8.83-8.89C189.89,90.78,192.87,86.92,194.86,84.35Z" style="fill:#263238"></path><path d="M282.17,101.13c-3.87-3.73-7.91-4.78-13.07-2.79-2.75,1.06-6.13,4-11,4-5.94,0-8.59-2.87-14.85-4.49a15.2,15.2,0,0,0-11,1c-7.24,3.43-9.41,12-8.34,19.42a11,11,0,0,1-4,9,10.18,10.18,0,0,0-1.64,1.57c-1.48,2.08.51,6.63.15,9.17a11.88,11.88,0,0,1-1.83,4.79,4.49,4.49,0,0,1-3.15,2.26c-2,.14-3.46-1.89-4.46-3.67-1.15-2.06-2.06-4.61-4-6a12.78,12.78,0,0,0-5.5-2.14,13.39,13.39,0,0,0-11,3.64c-6,5.8-5.47,19.86,2.38,26.93,9.79,8.83,19.87,2.31,20,.4,0,0,0,25.64,0,28.91.06,5.1-.42,9.24-7.11,12.17,11.4,21.36,36,38.63,55.14,36.06,19.47-2.61,14.8-28,3.54-37.26-1.17-.34-5.07-.55-5.18-5-.1-4.7,0-3,0-3,10.19.48,14.49-.21,20.2-3.48,8.51-4.87,15.91-14.36,15.91-45.11,0-11.3-4.31-14.65-3.62-19.7.93-6.84.55-14.13-2.67-20.36C286.28,106.15,286,104.86,282.17,101.13Z" style="fill:#ffbda7"></path><path d="M287,107.53c-.72-1.38-1-2.67-4.83-6.4s-7.91-4.78-13.07-2.79c-2.75,1.06-6.13,4-11,4-5.94,0-8.59-2.87-14.85-4.49a15.2,15.2,0,0,0-11,1c-7.24,3.43-9.41,12-8.34,19.42a10.61,10.61,0,0,1-3,8,252.43,252.43,0,0,0,39.46,1.08,129.71,129.71,0,0,0,29.78-4.67A31.11,31.11,0,0,0,287,107.53Z" style="fill:#FF4F91;opacity:0.30000000000000004"></path><path d="M227.17,189.53a29.73,29.73,0,0,1-11.61-11.85,22.85,22.85,0,0,0,9.36,15.25c11.5,8,29,8.69,32.9,8.76a5.24,5.24,0,0,1-.64-2.52c0-1.74-.05-2.6,0-3C246.81,195.5,235.07,193.69,227.17,189.53Z" style="fill:#f0997a"></path><polygon points="273.98 149.7 258.43 156.41 256.28 126.46 273.98 149.7" style="fill:#f0997a"></polygon><path d="M270.23,115.25l9.9,5.84a5.51,5.51,0,0,1-7.71,2.18A6,6,0,0,1,270.23,115.25Z" style="fill:#263238"></path><path d="M244.91,116.47l-9.17,7.17a5.59,5.59,0,0,0,8,1.17A6.12,6.12,0,0,0,244.91,116.47Z" style="fill:#263238"></path><path d="M249.36,115.65a5.14,5.14,0,0,0-1-2,5,5,0,0,0-4.33-1.86.33.33,0,0,0-.26.44.57.57,0,0,0,.52.37,4.33,4.33,0,0,1,3.11,1.72,4.13,4.13,0,0,1,.68,1.53,15.71,15.71,0,0,1,.12,2.06c0,.39.73.59.92.22a2.9,2.9,0,0,0,.33-1.35A5.38,5.38,0,0,0,249.36,115.65Z" style="fill:#b16668"></path><path d="M269.41,111.78a.63.63,0,0,0-.58-.2,3.29,3.29,0,0,0-1.52,1,5.19,5.19,0,0,0-.9,1.23,4.34,4.34,0,0,0-.51,2.32c0,.29.08.78.44.85s.5-.32.57-.59.11-.53.17-.8a5,5,0,0,1,.49-1.33,4.61,4.61,0,0,1,.76-1c.33-.33.75-.57,1.09-.89A.38.38,0,0,0,269.41,111.78Z" style="fill:#b16668"></path><path d="M278.49,144.5a7,7,0,0,1-1.36-.14,6.57,6.57,0,0,1-1.7-.58,6,6,0,0,1-1.47-1,6.21,6.21,0,0,1-1.14-1.31,6,6,0,0,1-.75-1.53,6.23,6.23,0,0,1-.2-3.27,6.23,6.23,0,0,1,.53-1.52,6.37,6.37,0,0,1,.89-1.3,6,6,0,0,1,1.18-1,6.08,6.08,0,0,1,1.36-.65,6,6,0,0,1,1.45-.26,5.06,5.06,0,0,1,1.44.13,4.93,4.93,0,0,1,1.33.48,5.75,5.75,0,0,1,1.13.79,5.35,5.35,0,0,1,.86,1,5.19,5.19,0,0,1,.54,1.2,4.5,4.5,0,0,1,.21,1.27,4.76,4.76,0,0,1-.13,1.24,4.62,4.62,0,0,1-1.14,2.1,4.59,4.59,0,0,1-.9.72,4.7,4.7,0,0,1-1,.44,3.91,3.91,0,0,1-1.08.15,4.08,4.08,0,0,1-1.05-.13,4,4,0,0,1-.95-.4,3.8,3.8,0,0,1-.79-.61,4,4,0,0,1-.57-.77,3.22,3.22,0,0,1-.34-.86,3.41,3.41,0,0,1-.1-.9,3.59,3.59,0,0,1,.14-.85,3.32,3.32,0,0,1,.36-.76,3.36,3.36,0,0,1,.52-.62,3.25,3.25,0,0,1,.64-.43,2.74,2.74,0,0,1,.7-.23,2.8,2.8,0,0,1,.71,0,2.72,2.72,0,0,1,.67.16,2,2,0,0,1,.56.32,1.84,1.84,0,0,1,.44.44,2.11,2.11,0,0,1,.29.51,2,2,0,0,1,.11.55,1.91,1.91,0,0,1,0,.53,2.07,2.07,0,0,1-.18.47,2.18,2.18,0,0,1-.3.38,1.63,1.63,0,0,1-.38.25,1.41,1.41,0,0,1-.43.12,1.29,1.29,0,0,1-.41,0,1.06,1.06,0,0,1-.37-.17,1,1,0,0,1-.28-.29,1.18,1.18,0,0,1-.13-.37,1,1,0,0,1,.06-.43.83.83,0,0,1,.15-.24.59.59,0,0,1,.83-.1.64.64,0,0,1,.21.35l0,0a.94.94,0,0,0,.06-.15,1.28,1.28,0,0,0,0-.19.71.71,0,0,0-.05-.22.84.84,0,0,0-.12-.23,1,1,0,0,0-.21-.21,1.12,1.12,0,0,0-.28-.16,1.47,1.47,0,0,0-.35-.08,1.26,1.26,0,0,0-.39,0,1.34,1.34,0,0,0-.4.13,2.08,2.08,0,0,0-.38.25,1.85,1.85,0,0,0-.32.37,2.3,2.3,0,0,0-.22.48,2.65,2.65,0,0,0-.09.54,2.88,2.88,0,0,0,.06.59,2.44,2.44,0,0,0,.62,1.09,2.33,2.33,0,0,0,.53.42,2.8,2.8,0,0,0,.67.28,2.63,2.63,0,0,0,.74.09,2.81,2.81,0,0,0,.77-.11,2.92,2.92,0,0,0,.75-.32,3.36,3.36,0,0,0,.66-.52,3.49,3.49,0,0,0,.52-.71,3.84,3.84,0,0,0,.33-.85,3.7,3.7,0,0,0,.09-.94,3.85,3.85,0,0,0-.15-1,4,4,0,0,0-.42-.92,4.61,4.61,0,0,0-.66-.8,4.38,4.38,0,0,0-.88-.62,4.43,4.43,0,0,0-2.17-.47,4.41,4.41,0,0,0-1.15.21,4.18,4.18,0,0,0-1.09.51,5.17,5.17,0,0,0-.94.8,5,5,0,0,0-.71,1,4.55,4.55,0,0,0-.43,1.22,5.07,5.07,0,0,0,.16,2.67,5.24,5.24,0,0,0,.61,1.26,5.35,5.35,0,0,0,.94,1.07,5.73,5.73,0,0,0,1.21.82,6.1,6.1,0,0,0,1.42.48,5.56,5.56,0,0,0,1.52.09,5.61,5.61,0,0,0,1.53-.3,6.29,6.29,0,0,0,1.42-.71,6,6,0,0,0,1.22-1.08,6.28,6.28,0,0,0,.91-1.39,6.14,6.14,0,0,0,.53-1.6,6.64,6.64,0,0,0,.1-1.72,7.11,7.11,0,0,0-.36-1.72,7.22,7.22,0,0,0-.81-1.59,6.84,6.84,0,0,0-1.22-1.35,7,7,0,0,0-1.55-1,7.34,7.34,0,0,0-1.79-.58,6.9,6.9,0,0,0-1.92-.09,7.41,7.41,0,0,0-1.91.41,7.9,7.9,0,0,0-1.76.9,8.36,8.36,0,0,0-1.49,1.36.58.58,0,1,1-.89-.75,8.8,8.8,0,0,1,1.72-1.56,8.5,8.5,0,0,1,2-1.05,8.33,8.33,0,0,1,2.2-.48,8.5,8.5,0,0,1,4.31.78A8.79,8.79,0,0,1,283,131a8.23,8.23,0,0,1,1.42,1.58,8.36,8.36,0,0,1,.95,1.86,7.93,7.93,0,0,1,.31,4,7.93,7.93,0,0,1-.63,1.89,7.45,7.45,0,0,1-2.52,2.92,7.15,7.15,0,0,1-3.53,1.22Z" style="fill:#37474f"></path><path d="M241.65,146.51h-.48a7,7,0,0,1-1.82-.38,6.91,6.91,0,0,1-1.7-.84,7.31,7.31,0,0,1-2.53-2.93,7.35,7.35,0,0,1-.62-1.89,7.23,7.23,0,0,1-.11-2,7.65,7.65,0,0,1,.42-2,8.08,8.08,0,0,1,2.37-3.45A8.24,8.24,0,0,1,239,131.8a8.15,8.15,0,0,1,2.08-.67,8.3,8.3,0,0,1,2.22-.11,8.71,8.71,0,0,1,2.21.47,8.88,8.88,0,0,1,2,1,9.13,9.13,0,0,1,1.72,1.56.61.61,0,0,1-.07.83.6.6,0,0,1-.83-.08,7.68,7.68,0,0,0-1.49-1.35,7.53,7.53,0,0,0-1.76-.91,7.4,7.4,0,0,0-5.61.26,7.57,7.57,0,0,0-1.56,1,7.18,7.18,0,0,0-1.21,1.36,6.44,6.44,0,0,0-.81,1.59,6.55,6.55,0,0,0-.26,3.43,6.09,6.09,0,0,0,.53,1.61,5.89,5.89,0,0,0,.91,1.38,6.24,6.24,0,0,0,1.21,1.08,6.16,6.16,0,0,0,1.43.71,6,6,0,0,0,1.52.31,5.64,5.64,0,0,0,1.53-.1,5.74,5.74,0,0,0,2.63-1.29,5.4,5.4,0,0,0,1.55-2.33,5.48,5.48,0,0,0,.26-1.34,5.43,5.43,0,0,0-.1-1.33,4.86,4.86,0,0,0-.43-1.23,4.6,4.6,0,0,0-.72-1,4,4,0,0,0-.94-.8,4.43,4.43,0,0,0-2.23-.73,4.84,4.84,0,0,0-1.14.1,4.66,4.66,0,0,0-1,.38,4,4,0,0,0-.87.62,3.93,3.93,0,0,0-1.08,1.72,3.78,3.78,0,0,0-.16,1,3.38,3.38,0,0,0,.1.94,3.34,3.34,0,0,0,.33.84,2.76,2.76,0,0,0,.52.71,3.13,3.13,0,0,0,.66.53,3.52,3.52,0,0,0,.74.32,3.41,3.41,0,0,0,.78.11,2.48,2.48,0,0,0,.74-.1A2.87,2.87,0,0,0,243,142a2.71,2.71,0,0,0,.54-.42,2.34,2.34,0,0,0,.39-.53,2.26,2.26,0,0,0,.28-1.15,1.76,1.76,0,0,0-.09-.55,1.54,1.54,0,0,0-.22-.47,1.79,1.79,0,0,0-.31-.37,2,2,0,0,0-.38-.26,1.87,1.87,0,0,0-.4-.13,1.67,1.67,0,0,0-.39,0,1.37,1.37,0,0,0-.35.08,1.64,1.64,0,0,0-.29.16,1.34,1.34,0,0,0-.2.21.86.86,0,0,0-.13.23,1.42,1.42,0,0,0-.05.22,1.11,1.11,0,0,0,0,.19,1,1,0,0,0,.06.16l.07.08a.53.53,0,0,1,.2-.36.55.55,0,0,1,.79.06.73.73,0,0,1,.16.25,1,1,0,0,1,.06.4,1.2,1.2,0,0,1-.13.39,1.26,1.26,0,0,1-.27.29,1.18,1.18,0,0,1-.39.18,1.37,1.37,0,0,1-.41,0,1.84,1.84,0,0,1-.42-.12,1.6,1.6,0,0,1-.37-.25,1.84,1.84,0,0,1-.31-.38,1.82,1.82,0,0,1-.18-.47,1.93,1.93,0,0,1,0-.53,2.07,2.07,0,0,1,.12-.56,2.35,2.35,0,0,1,.72-1,2.45,2.45,0,0,1,.57-.32,2.62,2.62,0,0,1,.66-.15,2.78,2.78,0,0,1,.71,0,2.83,2.83,0,0,1,.71.24,2.76,2.76,0,0,1,.64.43,3,3,0,0,1,.52.61,3.26,3.26,0,0,1,.35.76,2.82,2.82,0,0,1,.14.86,3.37,3.37,0,0,1-.09.89,3.84,3.84,0,0,1-.34.87,4,4,0,0,1-.58.77,3.82,3.82,0,0,1-.78.61,4.32,4.32,0,0,1-.95.39,3.82,3.82,0,0,1-1.05.13,3.91,3.91,0,0,1-1.08-.15,4,4,0,0,1-1-.44,4.25,4.25,0,0,1-.91-.72,4.65,4.65,0,0,1-1.14-2.09,4.88,4.88,0,0,1-.13-1.25,5.27,5.27,0,0,1,.21-1.26,5,5,0,0,1,.55-1.2,4.81,4.81,0,0,1,.86-1,5.45,5.45,0,0,1,1.12-.8,5.59,5.59,0,0,1,1.33-.48,5.4,5.4,0,0,1,1.44-.12,5.53,5.53,0,0,1,1.46.26,5.69,5.69,0,0,1,1.36.65,6,6,0,0,1,2.06,2.29,6.11,6.11,0,0,1,.53,1.52,5.7,5.7,0,0,1,.12,1.64,6.51,6.51,0,0,1-.31,1.64,6.8,6.8,0,0,1-.75,1.53,6.77,6.77,0,0,1-4.32,2.87A6.86,6.86,0,0,1,241.65,146.51Z" style="fill:#37474f"></path><path d="M263.73,170.84a3.24,3.24,0,0,1-1.6-.46,8.23,8.23,0,0,1-1.49-1.13l-.27-.24a10.09,10.09,0,0,0-.94-.8,1.72,1.72,0,0,0-.85-.38,1.75,1.75,0,0,0-.89.24,9.63,9.63,0,0,0-1,.63l-.32.2a8,8,0,0,1-1.65.89,3.17,3.17,0,0,1-1.88.15,3.1,3.1,0,0,1-1.57-1,8.23,8.23,0,0,1-1-1.55l-.17-.31a9.94,9.94,0,0,0-.62-1.06,1.84,1.84,0,0,0-.67-.63,1.92,1.92,0,0,0-.93-.06,9.92,9.92,0,0,0-1.2.27l-.36.09a.75.75,0,1,1-.36-1.46l.35-.09c.46-.11.93-.23,1.36-.29a2.85,2.85,0,0,1,3,1.3,12.06,12.06,0,0,1,.72,1.21l.17.3a6.75,6.75,0,0,0,.84,1.28,1.66,1.66,0,0,0,.82.56,1.78,1.78,0,0,0,1-.11,7,7,0,0,0,1.36-.74l.31-.2a11.31,11.31,0,0,1,1.19-.71,3.11,3.11,0,0,1,1.68-.4,3.27,3.27,0,0,1,1.61.66,12.61,12.61,0,0,1,1.07.91l.26.23a7.72,7.72,0,0,0,1.22,1,1.83,1.83,0,0,0,1,.26,1.68,1.68,0,0,0,.89-.42,7.44,7.44,0,0,0,1-1.12l.21-.28a13.64,13.64,0,0,1,.89-1.07,3.09,3.09,0,0,1,1.46-.92,3.23,3.23,0,0,1,1.72.11c.41.13.82.31,1.26.5l.36.16a.75.75,0,0,1-.59,1.38l-.37-.16a9.08,9.08,0,0,0-1.11-.44,1.66,1.66,0,0,0-.9-.09,1.71,1.71,0,0,0-.76.5c-.24.26-.5.59-.77.94l-.21.29a8.58,8.58,0,0,1-1.26,1.36,3.1,3.1,0,0,1-1.71.75Z" style="fill:#b16668"></path></g><g id="freepik--Arm--inject-78"><path d="M182.26,209.21c-17.64,2.82-17.51,1.94-90.41,58.39l-20,59s8.66,13.12,48.72-6c13.84-6.6,60.76-36.76,60.76-36.76C204.55,251.57,188.21,212.71,182.26,209.21Z" style="fill:#455a64"></path><path d="M150.63,174.59s1.4-.66,1.86-3.57.22-5,.67-8.2,2-8.66,5-9.19,4.49,6.36,4.5,11.93,0,8.86,3.7,15.19,4.95,14.41.94,21.41Z" style="fill:#f0997a"></path><path d="M166.41,205.27c-3.68,6.58-12.39,14.65-16.68,23.68-3.4,7.16-7,17-16.91,42.83-8,21.08-9.33,26.08-13.17,33.93s-7.42,11.83-14.06,16c-7.4,4.63-12.85,6.85-21.2,8.21a16.41,16.41,0,0,1-7.38,0c-6-1.77-8.74-7.62-9.07-14.18a87.61,87.61,0,0,1,4.62-33.28c1.76-5.12,3.35-7.86,11.87-19.71,6.92-9.64,13.55-17.29,24.1-30.69,11.56-14.7,19.64-26.49,22.34-32.9s1.4-16.23.14-20.82c-1.93-7-3-6.77-.64-15,1.77-5.41,1.7-12.26,2.36-16.58a46.59,46.59,0,0,1,4-12.26c1.9-4.28,3.41-9.89,5-10.43s4.22,1.23,4,4.65c0,0,2.11-2.48,3.93-5.06s3.08-5.82,5.58-6.35,3.61,3.37,2.68,6-1.65,4.22-1.65,4.22,2.41,1.13.17,6a25.06,25.06,0,0,1-3.54,5.39c-.9,3.72-1.09,5.55-3,8.58-1.14,3.51-1.8,6.48-3.49,9.34.82,2.58,2.86,5.67,2.73,10.11s-.88,5.47,4.22,10.9c3.44,3.66,9.35,7.88,12.55,12.89S170.09,198.7,166.41,205.27Z" style="fill:#ffbda7"></path><path d="M141.93,153.68a16.06,16.06,0,0,0-.24-2,18,18,0,0,0-.44-1.9,12.86,12.86,0,0,0-.65-1.78l-.15-.31.2-.36a15.52,15.52,0,0,0,1.59-4.68,17,17,0,0,0,.25-2.47,17.73,17.73,0,0,0-.12-2.44l0-.3.1-.2c.68-1.34,1.33-2.75,1.91-4.17a26.36,26.36,0,0,0,1.41-4.41,12.93,12.93,0,0,1-.44,4.36,30.35,30.35,0,0,1-1.86,4.62,12.87,12.87,0,0,1,.23,2.53,15,15,0,0,1-.24,2.75,12.7,12.7,0,0,1-1.71,4.73c.17.57.51,1.35.61,1.92a11.93,11.93,0,0,1,.33,2,11.56,11.56,0,0,1-.75,4.06C141.94,155,142,154.34,141.93,153.68Z" style="fill:#f0997a"></path><path d="M145.55,150.76a31.41,31.41,0,0,0,.61-3.13,25.28,25.28,0,0,0,.21-3.12,15.25,15.25,0,0,0-.27-3L146,141l.45-.35a14.67,14.67,0,0,0,3.62-4,20.61,20.61,0,0,0,2.26-5l.07-.25.14-.1a16.12,16.12,0,0,0,2-1.64,13,13,0,0,0,1.74-2,7.66,7.66,0,0,1-1.18,2.17,16.26,16.26,0,0,1-2.1,2,16.35,16.35,0,0,1-.63,2.79,14.8,14.8,0,0,1-1.16,2.49,13.82,13.82,0,0,1-1.78,2.47,13.29,13.29,0,0,1-2.08,1.88,17.61,17.61,0,0,1,.22,3.38,17.92,17.92,0,0,1-.38,3.36,14.88,14.88,0,0,1-.92,2.88,19.47,19.47,0,0,1-1.66,2.87C144.94,152.83,145.31,151.81,145.55,150.76Z" style="fill:#f0997a"></path><path d="M145,162.74a12.84,12.84,0,0,0,1.4,5.75,18.58,18.58,0,0,0,3.48,4.82c-.4-.92-.89-1.77-1.34-2.63s-.91-1.71-1.33-2.57A45.46,45.46,0,0,1,145,162.74Z" style="fill:#f0997a"></path><path d="M161.75,185.37a24.05,24.05,0,0,1,1,10.43,18.8,18.8,0,0,1-1.43,5,41.9,41.9,0,0,1-2.59,4.75,14.67,14.67,0,0,0,3.84-4.12,14,14,0,0,0-.86-16Z" style="fill:#f0997a"></path></g></g><g id="freepik--Dizzy--inject-78"><path d="M318,82.39c-3.63-8.58-14.86-13.3-31.56-13.3h-1.05A122.45,122.45,0,0,0,263,71.61c-29.09,5.84-61.55,21.17-81.81,39.4-1.48,1.33-2.9,2.67-4.24,4-12.18,12.31-16.84,23.91-13.13,32.67,3.07,7.23,11.5,11.7,24.11,12.93a17.46,17.46,0,0,1-1.25-2.13c-11-1.32-18.36-5.32-21-11.59-3.37-7.95,1.14-18.78,12.71-30.48.63-.64,1.28-1.27,1.94-1.91,20.2-19.28,54.58-35.63,84.85-41.3a117,117,0,0,1,20.17-2.13c16.48-.17,27.37,4.11,30.75,12.07S315,102,303.4,113.65q-2.25,2.28-4.77,4.5a11,11,0,0,0,.93,1.84c1.85-1.62,3.61-3.27,5.26-4.94C317,102.74,321.66,91.14,318,82.39Z" style="fill:#FF4F91"></path><path d="M304,114.7c-1.3-1.18-2.67-2.34-4.09-3.48-22.63-18.32-59.15-32.55-90-35.69a117.79,117.79,0,0,0-12.24-.66c-1.51,0-3,0-4.47.1-17.29.79-28.59,6.15-31.8,15.1s2.1,20.27,15,31.88c1.05,1,2.13,1.88,3.26,2.81q-.06-1.31,0-2.64c-.65-.55-1.27-1.1-1.89-1.66-12.22-11-17.33-21.58-14.42-29.71s13.58-13,30-13.79a105.06,105.06,0,0,1,11.32.13c22.27,1.38,48.3,9.11,70,20.29,3,1.53,5.84,3.12,8.61,4.77A128.84,128.84,0,0,1,298.92,113q1.93,1.57,3.72,3.19c12.21,11,17.33,21.58,14.41,29.71-2.56,7.13-11.06,11.77-24.17,13.32-.05.69-.11,1.36-.17,2,14.15-1.6,23.37-6.71,26.22-14.66C322.15,137.63,316.83,126.31,304,114.7Z" style="fill:#FF4F91"></path><polygon points="220.61 63.33 215.35 62.25 211.92 68.89 211.07 61.37 205.17 60.16 210.13 57.92 209.57 50.64 214.04 56.14 220.61 53.93 216.83 59.19 220.61 63.33" style="fill:#FF4F91"></polygon><polygon points="274.66 59.62 277.23 57.22 274.99 52.87 279.32 55.27 282.2 52.59 281.52 56.08 285.61 58.54 280.98 58.84 279.67 63.18 278.3 59.17 274.66 59.62" style="fill:#FF4F91"></polygon><polygon points="178.87 177.31 181.44 174.91 179.2 170.56 183.53 172.96 186.41 170.28 185.73 173.77 189.82 176.23 185.19 176.53 183.88 180.87 182.51 176.86 178.87 177.31" style="fill:#FF4F91"></polygon><polygon points="297.28 178.64 300.61 175.53 297.71 169.9 303.32 173.01 307.05 169.53 306.17 174.05 311.46 177.24 305.47 177.63 303.77 183.25 302 178.06 297.28 178.64" style="fill:#FF4F91"></polygon><path d="M144.73,111a7,7,0,0,1-1-.07,7.52,7.52,0,0,1-5.86-4.5,5.76,5.76,0,0,1,1.24-5.92,4.7,4.7,0,0,1,4.57-1.74,5.39,5.39,0,0,1,4.19,3.3,4.09,4.09,0,0,1-1,4.2,3.16,3.16,0,0,1-2.75,1.24,3.67,3.67,0,0,1-2.82-1.73,2.81,2.81,0,0,1,.34-3.05,2,2,0,0,1,2.46-.47,1.34,1.34,0,0,1,.83,1.54,1,1,0,0,1-.91.9.52.52,0,0,1-.51-.49.52.52,0,0,1,.41-.51.36.36,0,0,0,0-.25.37.37,0,0,0-.23-.27,1.08,1.08,0,0,0-1.33.2,1.83,1.83,0,0,0-.22,1.9,2.69,2.69,0,0,0,2,1.24,2.21,2.21,0,0,0,1.92-.9,3.14,3.14,0,0,0,.84-3.22,4.44,4.44,0,0,0-3.42-2.64,3.68,3.68,0,0,0-3.62,1.38,4.7,4.7,0,0,0-1.08,4.94,6.56,6.56,0,0,0,5.07,3.86,5.36,5.36,0,0,0,5.19-2.13,6.58,6.58,0,0,0,.24-8.53c-1.74-2.42-5.27-4.33-8.88-2.8a.5.5,0,1,1-.39-.92c4.11-1.75,8.11.4,10.09,3.14a7.6,7.6,0,0,1-.28,9.75A6.34,6.34,0,0,1,144.73,111Z" style="fill:#FF4F91"></path><path d="M248.18,54.66h-.11a7.61,7.61,0,0,1-7.67-6,6.36,6.36,0,0,1,1.65-6.39,7.52,7.52,0,0,1,7.11-2,5.75,5.75,0,0,1,4,4.52,4.68,4.68,0,0,1-1.32,4.7,5.37,5.37,0,0,1-5.15,1.4,4.07,4.07,0,0,1-2.76-3.32,3.16,3.16,0,0,1,.64-2.95,3.69,3.69,0,0,1,3.07-1.23,2.84,2.84,0,0,1,2.25,2.09,2.05,2.05,0,0,1-1.09,2.26,1.38,1.38,0,0,1-1.74-.25,1,1,0,0,1-.17-1.26.5.5,0,0,1,.85.51.54.54,0,0,0,.19.17.37.37,0,0,0,.35,0,1.07,1.07,0,0,0,.63-1.19,1.81,1.81,0,0,0-1.39-1.3,2.69,2.69,0,0,0-2.2.88,2.22,2.22,0,0,0-.42,2.08A3.14,3.14,0,0,0,247,49.88a4.41,4.41,0,0,0,4.16-1.17,3.65,3.65,0,0,0,1-3.74,4.71,4.71,0,0,0-3.32-3.8,6.58,6.58,0,0,0-6.12,1.77,5.36,5.36,0,0,0-1.39,5.44,6.6,6.6,0,0,0,6.71,5.28c2.94,0,6.62-1.65,7.54-5.47a.5.5,0,0,1,.6-.37.49.49,0,0,1,.37.6C255.56,52.72,251.53,54.66,248.18,54.66Z" style="fill:#FF4F91"></path><path d="M338,105.85a7.56,7.56,0,0,1-3.53-.9,6.34,6.34,0,0,1-3.86-5.34,7.49,7.49,0,0,1,3-6.76,5.76,5.76,0,0,1,6-.21,4.68,4.68,0,0,1,2.78,4,5.39,5.39,0,0,1-2.21,4.86,4.08,4.08,0,0,1-4.31,0A3.16,3.16,0,0,1,334,99.15,3.67,3.67,0,0,1,335,96a2.82,2.82,0,0,1,3.05-.41,2.07,2.07,0,0,1,1,2.28,1.37,1.37,0,0,1-1.29,1.18,1,1,0,0,1-1.09-.67.48.48,0,0,1,.35-.61.5.5,0,0,1,.59.27.34.34,0,0,0,.25,0,.37.37,0,0,0,.2-.29,1.07,1.07,0,0,0-.51-1.24,1.81,1.81,0,0,0-1.89.24A2.63,2.63,0,0,0,335,99a2.16,2.16,0,0,0,1.32,1.65,3.13,3.13,0,0,0,3.33.05,4.42,4.42,0,0,0,1.75-3.94,3.67,3.67,0,0,0-2.21-3.2,4.7,4.7,0,0,0-5,.13,6.58,6.58,0,0,0-2.55,5.84,5.36,5.36,0,0,0,3.3,4.54,6.59,6.59,0,0,0,8.35-1.79c1.94-2.28,2.95-6.16.6-9.3a.5.5,0,0,1,.1-.7.51.51,0,0,1,.7.1c2.68,3.59,1.55,8-.64,10.55A7.92,7.92,0,0,1,338,105.85Z" style="fill:#FF4F91"></path></g></g></svg>
