<svg xmlns="http://www.w3.org/2000/svg" viewBox="0 0 500 500"><g id="freepik--background-complete--inject-99"><path d="M156,235.68c-6.71,33.37-43.35,53.23-74.92,40.19C59.31,267,46.37,242.73,51.13,219.7,54.06,203.24,67,189.37,83,184.79c30-8.73,59.2,15.28,53.55,46.63a36.17,36.17,0,0,1-12.53,21.39c-12.9,11.05-34,11.49-46.45-.51a32.66,32.66,0,0,1-10.07-27.62c3.06-26.79,39-36.31,52.52-12,6.69,12.35,1.59,29-11.87,34A22.26,22.26,0,0,1,88.7,245c-12.24-7.34-13.09-26.49,0-33.41,13.16-7.15,28.86,4.61,23.54,19.16A13.76,13.76,0,0,1,96.39,239c10.34,2.07,18.52-7.71,15.52-17.58-4.1-13.46-22.5-13.92-28.83-2-7.66,15.93,8.08,31.32,24.19,25,19.19-8,15.73-35.63-3.46-41.16-11.56-3.6-25,2.38-30.11,13.38-6.75,13.86,0,31.63,13.94,37.95,16.35,7.57,36.46-.69,43.14-17.34,6.19-15,1-33.11-12-42.74-21.5-16.1-53.36-5.58-62.56,19.29a46.93,46.93,0,0,0,.4,34c6.82,17.65,24.68,29.77,43.54,30.21,25.67,1.61,50.12-17.11,55.83-42.22Z" style="fill:#ebebeb"></path><path d="M293.84,304.85c17.91-46,82.46-56.37,111.56-15.35a59.37,59.37,0,0,1,9.79,44,53.64,53.64,0,0,1-47,44.94c-16.47,1.72-33.91-4.46-44.51-17.45a47.95,47.95,0,0,1-7.32-48.47c.39-.84,1.48-3.15,1.89-4s1.75-2.94,2.31-3.8c.9-1.12,1.75-2.45,2.69-3.53l2-2.19c16.68-17.3,46.31-17.29,61.8,1.58a48.19,48.19,0,0,1,4.08,6.18,44.33,44.33,0,0,1,2.33,5.46c5.36,14.93.21,33.34-13.29,42.15a34,34,0,0,1-34,2.14c-14.69-7.25-20.85-26.38-13-40.77a26.88,26.88,0,0,1,30.22-13.33,23.92,23.92,0,0,1,18.2,25.33c-.92,10.56-9.47,19.37-20.21,19.69-10,.59-19.31-6.78-20.15-16.9-.8-7.67,3.87-15.72,11.42-17.89a16.09,16.09,0,0,1,11.09.55,15.86,15.86,0,0,0-19.44,6.62c-6,10.11.09,23.52,11.59,25.79,11.06,2.66,22.28-5.46,23.55-16.7,2.84-26.23-32.05-34-43.79-11.86-10.81,22.16,9.62,44.59,32.85,38.71,19.57-4.66,28.47-27.06,20.51-44.82-11.77-26.17-48-27.53-64.36-5a42.26,42.26,0,0,0-2.92,4.5,48.71,48.71,0,0,0-2.19,4.91,44.14,44.14,0,0,0-2.68,19.91c5.54,44.6,63.15,53.55,87.21,18,12.43-18.37,11.91-44.07-.72-62.24-8.26-12.34-21.54-20.81-36-23.9-29.63-7.06-61.8,9.7-73.46,37.83Z" style="fill:#ebebeb"></path><path d="M379.71,117.8c25.6-20.81,66.38-5.49,69.7,27.94,2.64,28-24.64,51-51.46,39.53-24.44-10.74-28.4-42.93-5.75-57.9,16.85-10.68,40.83-.54,43.37,19.61,2.33,16.93-13.55,32.62-30.49,27.53-10.64-2.91-18.17-14-15.59-25,2.21-10.94,13.8-18.49,24.55-14.68,14.45,4.94,16.37,24.57,1.91,30.69-10.71,4.13-22.52-6.45-17.57-17.39,3.39-7.61,13.71-9.31,18.81-2.5-5.14-6.36-15-4.55-18.05,2.84-3.11,7,2,15,9.28,16.15,10,1.88,17.95-9,14.53-18.15-3.12-9.13-15-12.85-22.95-7.49-8,5-10.28,16.6-4.88,24.26,8.68,12.67,27.1,10.92,34.14-2.46,9.86-18.9-9.11-38.44-28.63-32.82s-25.79,30.58-12.45,45.53c13.15,15.47,37.14,14.68,50-.81A37.25,37.25,0,0,0,443.08,132c-11.75-23.17-42.65-29.8-63.37-14.24Z" style="fill:#ebebeb"></path><path d="M346,231.38a23.59,23.59,0,0,1-.6-6.22,10,10,0,0,1,11.91-8.62c1,.13,2,.27,3,.49-1.74.38-3.51.51-5.26.77a10.54,10.54,0,0,0-8.16,7.63c-.46,1.95-.47,4-.93,5.95Z" style="fill:#dbdbdb"></path><path d="M327.87,217a23.1,23.1,0,0,1,6.22-.6,10,10,0,0,1,8.62,11.9c-.14,1-.27,2-.49,3-.38-1.74-.51-3.52-.77-5.26a10.51,10.51,0,0,0-7.63-8.16c-1.95-.46-4-.47-5.95-.93Z" style="fill:#dbdbdb"></path><path d="M342.22,198.26a23.1,23.1,0,0,1,.6,6.22,10.06,10.06,0,0,1-11.9,8.62c-1-.14-2-.27-3.05-.49,1.74-.38,3.51-.51,5.26-.77a10.53,10.53,0,0,0,8.16-7.64c.46-1.94.47-4,.93-5.94Z" style="fill:#dbdbdb"></path><path d="M360.38,212.61a23.51,23.51,0,0,1-6.22.6,10.06,10.06,0,0,1-8.62-11.91c.14-1,.27-2,.49-3,.38,1.74.51,3.51.77,5.26a10.54,10.54,0,0,0,7.63,8.16c1.95.46,4,.47,5.95.93Z" style="fill:#dbdbdb"></path><path d="M425.36,303.1a13.32,13.32,0,0,1-.65-4.36,6.94,6.94,0,0,1,8.48-6.08,20.08,20.08,0,0,1,2.11.49,24.53,24.53,0,0,1-3.15.67,7.48,7.48,0,0,0-5.91,5.2c-.38,1.33-.44,2.74-.88,4.08Z" style="fill:#dbdbdb"></path><path d="M412.77,293.15a13.32,13.32,0,0,1,4.36-.65,7,7,0,0,1,6.08,8.48,20.26,20.26,0,0,1-.49,2.12,25.27,25.27,0,0,1-.67-3.15,7.5,7.5,0,0,0-5.2-5.92c-1.33-.38-2.74-.44-4.08-.88Z" style="fill:#dbdbdb"></path><path d="M422.72,280.14a13.32,13.32,0,0,1,.65,4.36,7,7,0,0,1-8.49,6.08,20.68,20.68,0,0,1-2.11-.49,24.89,24.89,0,0,1,3.15-.67,7.48,7.48,0,0,0,5.92-5.2c.37-1.33.44-2.74.88-4.08Z" style="fill:#dbdbdb"></path><path d="M435.3,290.09a13.26,13.26,0,0,1-4.35.65,6.94,6.94,0,0,1-6.08-8.48,18,18,0,0,1,.49-2.12,25.22,25.22,0,0,1,.66,3.15,7.51,7.51,0,0,0,5.2,5.92c1.34.37,2.74.44,4.08.88Z" style="fill:#dbdbdb"></path><path d="M113.46,172.84a13.3,13.3,0,0,1-.65-4.35,7,7,0,0,1,8.48-6.09,20.26,20.26,0,0,1,2.12.49,25.27,25.27,0,0,1-3.15.67,7.51,7.51,0,0,0-5.92,5.2c-.38,1.34-.44,2.74-.88,4.08Z" style="fill:#dbdbdb"></path><path d="M100.88,162.89a13.22,13.22,0,0,1,4.35-.64,6.94,6.94,0,0,1,6.08,8.48,20.08,20.08,0,0,1-.49,2.11,23.22,23.22,0,0,1-.66-3.15,7.49,7.49,0,0,0-5.2-5.91c-1.34-.38-2.74-.44-4.08-.89Z" style="fill:#dbdbdb"></path><path d="M110.82,149.89a13.26,13.26,0,0,1,.65,4.35,6.94,6.94,0,0,1-8.48,6.08,17.41,17.41,0,0,1-2.11-.49,24.49,24.49,0,0,1,3.15-.66,7.51,7.51,0,0,0,5.91-5.2c.38-1.34.44-2.74.88-4.08Z" style="fill:#dbdbdb"></path><path d="M123.41,159.83a13.32,13.32,0,0,1-4.36.65A6.94,6.94,0,0,1,113,152a20.08,20.08,0,0,1,.49-2.11,24.53,24.53,0,0,1,.67,3.15,7.48,7.48,0,0,0,5.2,5.91c1.33.38,2.74.44,4.08.88Z" style="fill:#dbdbdb"></path><path d="M75.16,337.36a23.21,23.21,0,0,1-.6-6.23,10.06,10.06,0,0,1,11.9-8.62c1,.14,2,.27,3.05.5-1.74.38-3.51.5-5.26.77a10.54,10.54,0,0,0-8.16,7.63c-.46,1.95-.47,4-.93,5.95Z" style="fill:#dbdbdb"></path><path d="M57,323a22.7,22.7,0,0,1,6.22-.6c5.71.51,9.79,6.38,8.62,11.9-.14,1-.27,2-.49,3.05-.38-1.74-.51-3.52-.77-5.26a10.5,10.5,0,0,0-7.64-8.16c-1.94-.46-4-.47-5.94-.93Z" style="fill:#dbdbdb"></path><path d="M71.35,304.23a23.63,23.63,0,0,1,.6,6.23A10.06,10.06,0,0,1,60,319.08c-1-.14-2-.27-3-.49,1.74-.39,3.51-.51,5.26-.77a10.53,10.53,0,0,0,8.16-7.64c.46-1.95.47-4,.93-5.95Z" style="fill:#dbdbdb"></path><path d="M89.51,318.59a23.13,23.13,0,0,1-6.22.59,10,10,0,0,1-8.62-11.9c.14-1,.27-2,.49-3,.38,1.74.51,3.52.77,5.26a10.51,10.51,0,0,0,7.63,8.16c2,.47,4,.48,6,.94Z" style="fill:#dbdbdb"></path></g><g id="freepik--Character--inject-99"><path d="M285.92,111.41c-22.85,30-3.83,54.25-14,64.05-26.51,25.59-7.32,33.82-14.23,43.07-5.67,7.59-28.95,14.33-19.65,40.59l107.58-3.84c2.61-17.79-15.52-26.65-17.06-39.1s12.86-25.42-11.78-51.25C300.81,148.17,296.89,97,285.92,111.41Z" style="fill:#263238"></path><path d="M409.12,462.07h-84.8c-.75-1.78-1.5-3.59-2.27-5.43l-.7-1.66-2.45-5.92q-3.07-7.43-6.29-15.31l-.76-1.89s0,0,0-.06c-8.08-19.89-16.6-41.61-24.55-63.24l-.8-2.18c-.76-2.08-1.52-4.17-2.27-6.25-.1-.28-.2-.56-.31-.85-11.21-31.13-20.94-61.52-26.1-85.4q-1.16-5.31-2-10.16c0-.16-.06-.33-.08-.49-3.45-20.62,1.32-28.9,8.77-28.24.2,0,.41,0,.62.07a14.13,14.13,0,0,1,3.93,1.27c4,1.93,8.42,5.82,12.58,11.27C319.55,297.37,382.57,414.49,409.12,462.07Z" style="fill:#f7a9a0"></path><path d="M417.12,462l-.12.08H321.17c-.89-2.3-1.8-4.67-2.72-7.08-2.57-6.74-5.28-13.86-8.06-21.24q-.36-.93-.72-1.89l0-.05c-7.56-20.07-15.65-41.95-23.22-63.21l-.78-2.2-2.16-6.12c-.11-.31-.21-.61-.32-.91-11.76-33.45-21.8-64.43-25.89-83.2-.17-.76-.32-1.5-.48-2.23-.82-3.95-1.46-7.55-1.94-10.85-3.39-23.25,1.31-31,9.12-29.51h0a.67.67,0,0,1,.24,0,14.33,14.33,0,0,1,2.89,1c6.36,2.77,14.08,10.18,21.1,19.6C314.53,289.48,417.12,462,417.12,462Z" style="fill:#FF4F91"></path><path d="M406.92,444.89c-7.92.65-15.9.91-23.79.89a219.37,219.37,0,0,1-71.32-12.06l-1.66-.6-.45-1.19a196.69,196.69,0,0,0,23.85,6.76c19.81,4.53,40.4,5.85,60.68,4.91q5.82-.19,11.5-.68Zm-20.43-34c-16.11-7-32.67-15-52.18-21.92A214.2,214.2,0,0,0,290,378.64c.19.54.39,1.09.59,1.64A200.33,200.33,0,0,1,312.57,384c26.16,5.55,50.24,17.31,74.61,28Zm6.33,10.51A303.26,303.26,0,0,1,343,427.58c-11.4.55-23.27.67-34.81.25.21.59.43,1.18.66,1.76,6.95.33,13.9.44,20.83.37a318.92,318.92,0,0,0,64.45-6.43ZM317.1,297.79a313.13,313.13,0,0,0-31.69-.05q-6.77.31-13.53.76l-4.93.32-3.63.24c.18.63.37,1.27.57,1.91l7-.48,4.45-.29a390.19,390.19,0,0,1,42.7-1ZM359.93,367A125.89,125.89,0,0,1,336,352.17c-.26-.2-.52-.4-.77-.61-.92-.72-1.83-1.45-2.72-2.21-16-13.32-28.88-30.08-45.93-42.23a88.64,88.64,0,0,0-11.29-6.92c-1.13-.59-2.27-1.16-3.42-1.7a90.77,90.77,0,0,0-9.85-3.89l.77,2.68c1.4.46,2.78,1,4.15,1.53s2.61,1.07,3.9,1.67l.24.11c23.82,10.7,39.49,32.31,59.28,48.64.91.76,1.83,1.5,2.76,2.23.71.56,1.43,1.11,2.15,1.65A121.44,121.44,0,0,0,360.49,368C360.3,367.64,360.11,367.34,359.93,367Zm-10.5-17.17c-5.64-.08-11.28-.23-16.91-.51-.72,0-1.44-.06-2.15-.11q-4.58-.23-9.13-.58A267,267,0,0,1,277,341.59l.69,2q8.31,2.14,16.75,3.69a278.37,278.37,0,0,0,38.69,4.18c.7,0,1.4.06,2.11.09,5.15.21,10.3.32,15.46.37C350.28,351.24,349.86,350.55,349.43,349.86Z" style="opacity:0.1"></path><path d="M401.47,453.35c-2.4,1.7-7.34,4.88-13.45,8.72h-3.46c5.14-3,10.7-6.09,16.7-9.27C402,452.44,402.07,452.92,401.47,453.35Z" style="fill:#263238"></path><path d="M332.25,462.07h-129c-3.77-14.8-6.49-25.48-7.2-28.28-.11-.43-.18-.67-.19-.72-.09-.32-.16-.57-.2-.78a3.64,3.64,0,0,1-.12-.43H323.64l.54,1.89Z" style="fill:#37474f"></path><path d="M319.5,431.8v.06c0,.08,0,.23,0,.43,0,.49,0,1,0,1.46,0,1,0,2,0,3.06-.06,3.85-.23,7.68-.48,11.52,0,.24,0,.49-.05.73q-.18,3-.45,5.93-.29,3.56-.68,7.08H135.48c3.93-14.12,7.43-25.29,8.54-28.27.1-.28.19-.49.25-.62.38-.87.62-1.32.62-1.32h35l82.94,0H319.5Z" style="fill:#37474f"></path><path d="M284.5,462.07h-1.95c.29-4.27.62-8.55,1-12.81a.48.48,0,0,1,.95,0C284.58,453.54,284.56,457.81,284.5,462.07Z" style="fill:#263238"></path><path d="M307.22,462.07c.2-4.86.31-10,.09-13.93,0-.41.58-.39.65,0a97.62,97.62,0,0,1,1,13.91Z" style="fill:#263238"></path><path d="M229.83,450.37c-.42,3.89-1,7.82-1.71,11.7h-2c1.23-3.92,2.25-7.89,3.13-11.79A.3.3,0,0,1,229.83,450.37Z" style="fill:#263238"></path><path d="M322.7,462.07H322c-.24-2.35-.44-4.72-.61-7.09-.25-3.41-.46-6.84-.63-10.22,0-.35.14-.37.16,0,.34,3.92.72,7.93,1.17,11.9Q322.35,459.37,322.7,462.07Z" style="fill:#263238"></path><path d="M157.41,435.94c-1.58,8.67-3.27,17.4-5,26.13h-1.78Q153.85,449,157.41,435.94Z" style="fill:#263238"></path><path d="M325.64,433.75l-9.48-59.62s19.28-22.22,6.4-49c-6.22-12.93-36.25-77.26-58.64-93.14-21-14.89-50.27-4.14-59.6,12-23.53,40.7-48.41,89.1-62,189.79Z" style="fill:#FF4F91"></path><path d="M315.16,433.75h-3.25l-.1,0c-4.29-1.52-8.43-3.1-12.46-4.7l-4.88-2c-40.41-16.68-69.78-35.52-116.6-32.25-1.5.09-3,.22-4.55.37l-1.68.18-1.78.2c-2.14.25-4.3.55-6.51.89-5.28.79-10.49,1.84-15.64,3.1.13-.75.27-1.5.41-2.25a178.91,178.91,0,0,1,19.44-3.35l1.76-.19c2-.2,3.9-.37,5.85-.5,2.5-.17,5-.27,7.48-.32,22.41-.43,44.71,4,67.84,14.09,15.6,6.61,31,14,46.72,20.25q2.52,1,5.06,2C306.53,430.85,310.82,432.37,315.16,433.75Zm2.56-49.83a223.08,223.08,0,0,0-54.73-7,260,260,0,0,0-39,2.63A201.13,201.13,0,0,0,180.71,391q-2.79,1.07-5.54,2.22c-1.1.46-2.2.93-3.29,1.41l-1,.43-1,.46c-7.87,3.5-15.57,7.34-23.37,10.84-.17,1-.33,1.94-.49,2.92,5.15-2.27,10.22-4.7,15.28-7.07q6.5-3.19,13-6l1-.41c.87-.37,1.74-.72,2.61-1.07q2.38-1,4.78-1.87a212.62,212.62,0,0,1,69.24-13.83c20.27-.94,40.87.38,60.68,4.91,1.79.38,3.58.79,5.35,1.23Zm7,44.15c-7.32.05-14.65-.1-21.81-.46-1.91-.1-3.81-.22-5.72-.35l-2.74-.22a330.3,330.3,0,0,1-82.86-18c-12.16-4.19-24.22-8.8-36.35-13.18l-1.94-.7-1.44-.51-2.56-.91c-6.4-2.25-12.82-4.4-19.29-6.36-.06.29-.12.59-.17.89,5.94,1.74,11.83,3.65,17.7,5.66l3.33,1.15.75.26,2.65.93c29.24,10.35,58,22.5,88.65,27.9A304.38,304.38,0,0,0,299.35,429l2.92.21q11.39.75,22.77.75ZM308.88,297.46c-7.87-.2-15.73-.08-23.47.28q-6.77.31-13.53.76l-4.93.32c-23.46,1.55-46.95,3.28-70.3-.27q-3.32-.48-6.48-1.07c-.59-.1-1.17-.21-1.75-.33s-1.11-.22-1.66-.34c-1.51-.3-3-.63-4.47-1s-2.75-.65-4.09-1l-.6,1.37-.37,0,.32.09c2.28.65,4.59,1.25,6.91,1.8q2.83.67,5.71,1.24l1.72.34A203.4,203.4,0,0,0,241,302.42c10-.49,19.9-1.25,29.84-1.93l4.45-.29c11.46-.76,22.91-1.33,34.37-1.21Zm-22.29,9.66a88.64,88.64,0,0,0-11.29-6.92c-1.13-.59-2.27-1.16-3.42-1.7A87.35,87.35,0,0,0,245,290.87c-14.94-1.8-29.92.71-44.66,2.75-4.76.76-9.47,1.38-14.16,1.86l-1.06.1c-.94.1-1.89.18-2.83.25-1.56.14-3.13.26-4.69.36l-.37,0,.32.09c-.34.79-.68,1.59-1,2.4.64,0,1.29-.07,1.93-.12q3-.19,6-.48l3.54-.37,1.05-.13,1.12-.13c10.92-1.31,21.73-3.21,32.56-4.24,14.94-1.56,30.25,0,44.22,5.58,1.31.51,2.61,1.07,3.9,1.67l.24.11c22.43,10.07,37.63,29.81,55.84,45.72,0-.59.05-1.19.05-1.8C313.43,332.14,301.63,317.84,286.59,307.12Zm34.65,41.54c-26.57-2.05-53-7.73-77.55-18.21-18.68-8-35.52-18.91-51.8-30.76l-2.84-2.08-.63-.46-2.24-1.67c-2.08-1.54-4.15-3.1-6.22-4.66-.1.21-.19.43-.28.64,1.81,1.38,3.62,2.76,5.44,4.12.54.42,1.09.83,1.64,1.23s.83.63,1.24.93c.72.55,1.45,1.09,2.17,1.61,16.67,12.38,33.85,24,53,32.32a229.16,229.16,0,0,0,51.28,15.62,265.51,265.51,0,0,0,32,3.82c.12-.68.22-1.37.29-2.07C324.88,348.93,323.06,348.8,321.24,348.66Z" style="opacity:0.1"></path><path d="M285.29,359.1A193.22,193.22,0,0,0,257,364.32c-4.59,1.28-9.09,2.75-13.58,4.33-2.24.79-4.5,1.5-6.76,2.2a30.25,30.25,0,0,1-7.28,1.52.17.17,0,0,0,0,.34,53,53,0,0,0,7-.26,52.13,52.13,0,0,0,6.68-1.4c4.67-1.25,9.28-2.72,13.94-4,9.39-2.62,18.78-5.23,28.34-7.16C285.86,359.79,285.74,359,285.29,359.1Z" style="fill:#263238"></path><path d="M309,367.08a208.14,208.14,0,0,0-23.69-.66c-4,.12-7.87.48-11.81.94-1.87.21-3.75.47-5.61.74-2.06.31-4.08.89-6.14,1.16-.21,0-.21.37,0,.34,1.94-.2,3.94-.07,5.9-.16s3.93-.19,5.9-.27c3.94-.18,7.88-.31,11.82-.52,7.89-.43,15.74-.77,23.64-.92C309.49,367.72,309.45,367.11,309,367.08Z" style="fill:#263238"></path><path d="M325.64,433.75c-3.61-19.13-7.21-40.2-10.37-59.48l-.06-.37.24-.33a59.85,59.85,0,0,0,10.65-33.18c-.25-5.32-2.59-10.33-4.5-15.26-3.38-8-7.11-15.88-11-23.66-2.92-5.8-9-17.5-12.05-23.23q6.83,11.17,13.05,22.7c4.13,7.72,8.19,15.47,11.64,23.52,2,5.12,4.52,10.33,4.79,15.94a59.34,59.34,0,0,1-11.12,34.29l.18-.7c3,19.32,6.09,40.43,8.59,59.76Z" style="fill:#263238"></path><path d="M303.61,282.52c2.2,3.6,3.9,7.73,3.92,12-1-4.13-2.64-7.95-3.92-12Z" style="fill:#263238"></path><path d="M222.82,234.3c1,3.66,20,33,39.46,28.66,8.2-1.84,1.13-33.53,1.13-33.53l6.29-33.56L227,170.8S222.43,232.75,222.82,234.3Z" style="fill:#f7a9a0"></path><path d="M269.69,195.87l-6.1,32.57a67.73,67.73,0,0,1-38.28-34.34c.9-12.61,1.69-23.29,1.69-23.29Z" style="fill:#263238"></path><path d="M217.85,232.34s14.87,35.87,19.56,39.92,43.64.63,44.41-2.67-17.42-35.83-17.42-35.83-14.76-6.84-27.3-6.95C224.18,226.7,217.85,232.34,217.85,232.34Z" style="fill:#f7a9a0"></path><path d="M292.31,103s13.35,4.79,16.72,14c5.49,15,1,41.2,1,41.2Z" style="fill:#263238"></path><path d="M309.19,143c11.62,54.7-19.83,67.84-31.63,70.33-10.71,2.27-47.46,8.61-64.67-44.59s4.54-75.9,28.76-82.37S297.56,88.32,309.19,143Z" style="fill:#f7a9a0"></path><path d="M296.58,131.32a34.09,34.09,0,0,1-3.7-1.09c-1.42-.43-2.59-.63-3.57-1.83a2,2,0,0,1,.19-2.42c1.35-1.32,3.21-1.22,4.94-.77a7.27,7.27,0,0,1,4.34,2.91A2.12,2.12,0,0,1,296.58,131.32Z" style="fill:#263238"></path><path d="M259,146.9a34.55,34.55,0,0,1,3.17-2.21c1.22-.84,2.11-1.63,3.66-1.64a2,2,0,0,1,1.76,1.66c.2,1.88-1.05,3.27-2.48,4.34a7.27,7.27,0,0,1-5,1.56A2.12,2.12,0,0,1,259,146.9Z" style="fill:#263238"></path><path d="M270.2,188.7c1,.84,1.94,2,3.33,2.05a10.2,10.2,0,0,0,4-1.19c.11-.05.24.07.17.18a5.11,5.11,0,0,1-4.71,2.34c-1.73-.2-2.67-1.64-3.18-3.19C269.77,188.67,270.06,188.58,270.2,188.7Z" style="fill:#263238"></path><path d="M275,180.55c6.15-2.63,9.32-2.08,13.22-2.33.41-.14,1.31-.62,1.31-1v0l-1.71-7.75c1.13.31,6.8,1.68,6.44.23-3-12-6.37-25.35-11.9-36.66a.35.35,0,0,0-.65.22c2.44,11.65,6.91,22.79,9.55,34.46-1.79-.32-4.73-1-6.19-.68-.38.19,2.23,8.12,2.33,9.4,0,0-5.95-1.26-13,3.57C272.84,181,272.75,181.5,275,180.55Z" style="fill:#263238"></path><path d="M278.74,177.71s1.38,6.4-1.47,9c-3.27,3-7.39-.66-4.6-5.18C274.14,179.15,278.74,177.71,278.74,177.71Z" style="fill:#263238"></path><path d="M279.07,181.55c-.05,1.83-.47,3.93-1.81,5.14-1.72,1.57-3.69,1.3-4.75,0l0,0s0-.09-.05-.15C274.82,182.08,277.28,181.28,279.07,181.55Z" style="fill:#ff99ba"></path><path d="M274.69,168.11c-3.85,4.17-11.4,3.21-14.79-1.17a10.34,10.34,0,0,1-1.68-8.12c2-9.82,15.7-11.11,18.47-1.1,1.51,5.92-4.71,12-10.52,9.39-4.25-1.62-6-7.39-2.79-10.86,3.05-3.71,9.43-2.37,10.44,2.43a5.31,5.31,0,0,1-4.71,6.38c-5.58.27-7.15-7.64-1.46-8.86,3.47-.54,5.92,3.68,3.27,6.17s-6.86-.93-4.35-3.77a2.25,2.25,0,0,1,3.58.42c-2.08-2.79-5.64,1-3,3.07a2.42,2.42,0,0,0,3.26-.27c1.88-1.88-.15-5.06-2.61-4.63a3.25,3.25,0,0,0-2.54,2.17c-.9,2.37,1.36,4.91,3.8,4.7,4.18-.32,5.24-6,1.76-8.12-3.34-2.35-7.93.45-8.08,4.36-.32,3.88,3.78,7.11,7.52,6.27a7.23,7.23,0,0,0,5.46-8.63C273.2,149,261,150.25,259.2,159a9.31,9.31,0,0,0,1.51,7.32c2.92,4.23,10.11,5.47,14,1.77Z" style="fill:#263238"></path><path d="M291.76,160.25a7.38,7.38,0,0,0,9.48,2.36c5.18-3.16,4.82-11.32.74-15.28a6.13,6.13,0,0,0-6.21-1.74c-5.83,2-5.54,11.29-.29,13.83,3.39,1.67,6.78-1.61,6.55-5.07.11-3.13-3-7.24-6.32-5.29-2.88,1.79-2.23,7,.92,8.11,3.84,1,4.65-5,1.59-6.41a2,2,0,0,0-2.51.89c-1.19,1.62.42,5.27,2.65,3.95s-.1-5.92-2.24-3.49c.71-1.3,2.48-.88,3.07.31,1.7,3-2,5.82-4.11,2.69-1.76-2.5.26-6.61,3.54-5.27,3.3,1.53,3.4,7.08-.18,8.29-2.09.71-4.21-.91-5-2.73-2.84-6.33,4.87-11.25,8.57-4.81,2,3.39,1,8.66-3,10-5.65,1.63-9.53-5.35-8.37-10.22,1.13-5.86,7.83-8.13,12.05-3.76,4.46,4.29,5,13.6-1.06,16.72a7.73,7.73,0,0,1-9.86-3.09Z" style="fill:#263238"></path><path d="M254.6,84.07c-26.69.75-48.15,8.57-57.55,22.67-19.61,29.41-2.25,74.61-11.17,84.38-23.3,25.49-4.86,32-10.78,41.11-4.86,7.44-26.24,15.11-16,39.13l100.4-9.92c1.39-16.8-16.08-24-18.26-35.57s10.54-24.53-14-47.24C211.28,163.89,254.6,84.07,254.6,84.07Z" style="fill:#263238"></path><path d="M212.11,168.85c6.39-.32,21.32-1.17,29.68-10,4.61-4.88,8.23-12.66,9.36-26,2-23.23,15.51-39.93,41.28-29.66,0,0,2.49-21.62-12.72-28.17s-27.83,9.21-27.83,9.21-31.73.71-45.59,26.47S212.11,168.85,212.11,168.85Z" style="fill:#263238"></path><path d="M230.53,168.19S216.28,152.36,209,157.65s4.88,29.27,14.54,31.57,11.95-6.6,11.95-6.6Z" style="fill:#f7a9a0"></path><path d="M212.62,164.44c-.15,0-.15.21,0,.25,6.8,1.82,11,7.4,14.1,13.33-2.22-2.16-5-3.15-7.93-.46-.15.14,0,.38.22.32,2.58-.89,4.55-.67,6.6,1.23a27.56,27.56,0,0,1,3.68,4.77c.37.54,1.38.1,1.08-.54l-.07-.14C229.42,174.93,221.58,164.17,212.62,164.44Z" style="fill:#263238"></path><path d="M291.9,119.64c-1.21-4.13,1.1-8.07,5.68-7.45.51.07,1,.14,1.53.25-1,.23-2.09.25-3,.47a5.33,5.33,0,0,0-3.76,3.75c-.22.9-.24,2-.47,3Z" style="fill:#fff"></path><path d="M282.78,112.44c4.13-1.21,8.08,1.09,7.45,5.67-.07.51-.13,1-.24,1.53-.24-1-.26-2.09-.48-3a5.32,5.32,0,0,0-3.75-3.75c-.89-.22-2-.24-3-.47Z" style="fill:#fff"></path><path d="M290,103c1.2,4.13-1.1,8.08-5.68,7.45-.51-.06-1-.13-1.53-.24,1-.24,2.09-.25,3-.48a5.3,5.3,0,0,0,3.75-3.75c.23-.89.25-2,.48-3Z" style="fill:#fff"></path><path d="M299.11,110.22c-4.13,1.2-8.08-1.1-7.45-5.68.06-.51.13-1,.24-1.53.23,1,.25,2.09.48,3a5.3,5.3,0,0,0,3.75,3.75c.89.23,2,.25,3,.48Z" style="fill:#fff"></path><path d="M242.64,167.89c-1.21-4.13,1.1-8.07,5.68-7.45.51.07,1,.13,1.52.25-1,.23-2.08.25-3,.47a5.33,5.33,0,0,0-3.76,3.75c-.22.89-.24,2-.47,3Z" style="fill:#fff"></path><path d="M233.52,160.69c4.13-1.21,8.07,1.09,7.45,5.67-.07.51-.13,1-.24,1.53-.24-1-.26-2.09-.48-3a5.34,5.34,0,0,0-3.75-3.75c-.89-.22-2-.24-3-.47Z" style="fill:#fff"></path><path d="M240.73,151.26c1.2,4.13-1.1,8.08-5.68,7.45-.51-.07-1-.13-1.53-.24,1-.24,2.09-.26,3-.48a5.32,5.32,0,0,0,3.75-3.75c.23-.89.24-2,.48-3Z" style="fill:#fff"></path><path d="M249.84,158.47c-4.12,1.2-8.07-1.1-7.45-5.68.07-.51.14-1,.25-1.53.23,1,.25,2.09.47,3a5.33,5.33,0,0,0,3.76,3.75c.89.23,2,.25,3,.48Z" style="fill:#fff"></path><path d="M110.8,406.37c20.71-4.49,73-61.94,105.73-129.54,5.07-10.46-48.33-56.13-55.76-46.17C151.41,243.21,98.54,313,96.55,317,79.77,350.89,96.76,409.42,110.8,406.37Z" style="fill:#f7a9a0"></path><path d="M148.58,246.52s4.79-28.63,9.58-47.42c2.67-10.47,8.85-28,14.34-34.83,8.2-10.18,49-47.49,58.26-37.79,8.38,8.78-30.74,36.38-30.74,36.38s37-31.34,45.16-18.92S205,181.68,205,181.68s38.76-31.35,45.13-17.21c4.82,10.69-37.68,36.08-37.68,36.08s33.5-26.72,38.93-15.94c6,11.91-31.77,37.81-31.77,37.81,9.19,29.72,1.41,47.63-5.65,59.71C212.24,285.05,148.58,246.52,148.58,246.52Z" style="fill:#f7a9a0"></path><path d="M186.52,172.88c4.22-3.84,8.46-7.75,13-11.2s9.21-6.75,14-9.76c11.88-7.39,20.47-10.16,20-9.93-12.11,5.41-28.56,17.51-33.11,21s-9.24,6.66-13.77,10.1C186.53,173.15,186.42,173,186.52,172.88Z" style="fill:#263238"></path><path d="M198.69,189.51c5.59-4.67,11-9.51,16.78-13.94s11.63-8.07,17.69-12.06c.47-.31.48,0,0,.37-5.9,4.23-11,8.6-16.87,12.9s-11.87,8.38-17.53,12.87C198.7,189.72,198.6,189.58,198.69,189.51Z" style="fill:#263238"></path><path d="M206.56,205.65c8.18-7.57,17.76-13.62,27.29-19.34.47-.28.44.17,0,.49-9.19,6.26-16.45,11.11-27,19.14C206.66,206.07,206.39,205.81,206.56,205.65Z" style="fill:#263238"></path><path d="M156,208.17c1.59-6.23,3.31-12.44,5.21-18.59,2.49-7.63,4.72-15.51,8.82-22.5a88.23,88.23,0,0,1,9.48-11c9.08-9.19,18.74-17.85,29.6-24.9,5.53-3.38,11.62-6.78,18.31-6.81,2.95,0,5.82,1.9,5.56,5.14-.35,4.32-3.36,7.86-6,10.9-4.41,4.79-9.13,9.16-13.9,13.52L212,152.46c7.65-4.87,20-12.69,29.24-11.91,3,.23,6,3,5.59,6.25-.78,5.57-5.14,9.65-8.85,13.45-1.92,1.84-3.9,3.56-6,5.21l-1-1.66c5.05-2,10.42-4.21,16-3.28,4.28.88,4.8,5.82,2.89,9.11-4.25,7.56-11.5,12.73-17.5,18.74l-1.06-1.4a62.83,62.83,0,0,1,8.45-3.92c3.06-1,6.14-2.15,9.49-1.34a5.14,5.14,0,0,1,3.39,4c.93,4.94-2.18,9.45-4.86,13.19-7.62,9.77-17.57,17.29-27.83,24l.21-.7a71.06,71.06,0,0,1,3.34,33.14,72.72,72.72,0,0,1-11.72,31,73.26,73.26,0,0,0,11.07-47.66,65.63,65.63,0,0,0-3.91-16.5,152,152,0,0,0,15-11.2c6.61-5.92,13.8-12.34,16.81-20.84,3.14-12.92-13.24-4.56-18.57-1.66l-5.84,3.25,4.79-4.65c5.86-5.91,12.94-11,17.07-18.3,3.79-8.39-5.39-7-10.56-5.37-3.63,1-9.06,3.59-12.57,5.08,5.72-4.57,12.3-9.53,16.69-15.38,6.92-8.82,1.38-12.81-8.08-9.69-7.35,2.37-14.18,6.33-20.64,10.53l-1.13-1.43c4.58-4.59,22.14-18.42,19-25-3.9-4.7-16.77,2.16-21,4.83-10.81,6.84-20.55,15.39-29.63,24.38a94.37,94.37,0,0,0-9.53,10.76c-4.16,6.83-6.52,14.62-9.13,22.16q-3,9.16-5.61,18.46Z" style="fill:#263238"></path><path d="M151.17,229.47l51.3,95.16s-72.15,78.69-92.5,85.93c-23.59,8.4-38.86-52.72-15.37-97Z" style="fill:#FF4F91"></path><path d="M116.55,407a33,33,0,0,1-6.58,3.53,12.74,12.74,0,0,1-4.77.77Q110.85,409.14,116.55,407Zm-7.41-28.52a222.74,222.74,0,0,0-25.3-1.46c.07.56.15,1.1.24,1.65A218.26,218.26,0,0,1,109,379.83a215.44,215.44,0,0,1,32.93,6.23l.86-.79A215.5,215.5,0,0,0,109.14,378.51ZM188,297.74s0,0-.05,0l-.39-.72c-.27-.05-.53-.1-.8-.17-1.51-.3-3-.63-4.47-1-23.73-5.55-41.2-15.42-57.23-27.52l-.6.88a156.27,156.27,0,0,0,52.77,27q3.59,1,7.23,1.89c1.4.33,2.81.65,4.22.94l-.71-1.31Zm-.44-.76-.42-.78-.42-.78-.54.06-1.06.1c-.94.1-1.89.18-2.83.25-1.69.15-3.38.28-5.06.39a212.56,212.56,0,0,1-66.71-6.3l-1.2,1.78a237.86,237.86,0,0,0,24.44,5.1,200.87,200.87,0,0,0,44.71,1.79q3-.19,6-.48c1.17-.11,2.34-.24,3.51-.37h0s0,0-.05,0Zm0,0-.42-.78-1-.72c-17.63-13.12-34.78-27-53.12-39.08l-.6.9q11.17,7.05,21.81,14.95c10.38,7.6,20.54,15.57,30.85,23.33.54.42,1.09.83,1.64,1.23.39.31.79.6,1.19.89Z" style="opacity:0.1"></path><path d="M181.27,330c-21.13-32.77-34.64-64.38-38.11-70.73-.17-.3.34-.53.49-.22,3.08,6.41,23.71,41.25,38.16,70.71C182,330.1,181.48,330.31,181.27,330Z" style="fill:#263238"></path><path d="M197,312.64a.51.51,0,0,0-.9.47c1.36,2.8,4.58,10,4.58,10.6,0,.42-12.05,13.21-16,17.57q-11.79,13-24.1,25.51t-25.3,24.71c-3.95,3.71-7.86,7.54-12.08,10.94-3.79,3.05-8,5.74-12.9,6.64-8.61,1.59-17.59-4-21-11.87a18,18,0,0,1-1-3.12c0-.1-.19-.09-.18,0,.8,9.07,8.72,16.33,17.65,17.18,10.73,1,19.45-7.34,26.7-14.06q13.42-12.42,26.32-25.4t25.34-26.58c4.1-4.48,18.84-21.16,19-21.59S197.83,314,197,312.64Z" style="fill:#263238"></path></g><g id="freepik--Table--inject-99"><path d="M51.68,462.07c127.06-.61,269.58-.62,396.64,0-127.06.62-269.58.61-396.64,0Z" style="fill:#263238"></path></g><g id="freepik--Lines--inject-99"><path d="M201,131.79c-19.83-5.26-64.47-17.86-75-35.39-11.21-23.33,59.33-23,72.1-22.27a517.67,517.67,0,0,1,111,16.32c18.08,4.82,36.07,10.45,52.86,18.82,7.64,4,23.84,12.55,22.34,22.59C382.62,139.2,372.4,142.21,366,144c-18.26,4.35-37.22,4.39-55.89,3.88,18.65.43,37.62.31,55.83-4.12,7.68-2,21.62-6.62,17.37-17-6.69-13.2-33.77-23-47.45-27.87-44.38-14.72-91.1-22.38-137.77-24.35-18.63-.44-37.61-.34-55.78,4.21-7.8,2-21.48,7.31-16,17.52,10.35,17.32,55.21,30.27,74.76,35.52Z" style="fill:#c7c7c7"></path><path d="M202.13,126c-77.52-22-71.46-48.42,7.81-45.5A415.36,415.36,0,0,1,319.06,99.68a199.43,199.43,0,0,1,20.71,8.07c6.66,3.19,13.38,6.66,18.66,11.94,7.19,7.49,3,13.54-5.62,16.75-14,5-29.2,5.18-43.91,5.25,11.09,0,22.24-.45,33.16-2.51,9.55-1.71,27.51-7.31,16.16-19.29-5.24-5.23-12-8.68-18.59-11.84A198.54,198.54,0,0,0,319,100c-35.22-11.28-72.11-17.35-109-19.1-78.76-2.93-85,22.55-7.8,45.09Z" style="fill:#c7c7c7"></path><path d="M209.4,179.43c-14.05,6.88-41.09,20-56.31,15.94-17.87-6.48,6.57-35.8,13.45-43.9,24.63-28.07,54.11-51.5,84.81-72.58,23.22-15.51,47.46-30,73.71-39.77,11.72-4.46,43.12-13.4,36.45,9.73-3.72,11.12-11.36,20.41-18.77,29.3-12.21,14.11-26,26.8-40.22,38.8,14.2-12.06,27.9-24.8,40-39,7.35-8.9,20.18-24.22,19.52-36.06-2-14.54-28.12-5.54-36.89-2.46-26.2,9.8-50.38,24.31-73.56,39.83-30.7,21-60.2,44.39-84.84,72.39-6.91,8.1-31.08,37.1-13.62,43.44,15.17,4.1,42.23-8.93,56.23-15.7Z" style="fill:#c7c7c7"></path><path d="M205.42,173.87c-10,4.12-20.47,8.61-31.48,8.3-15.68-1.16-6.29-18.4-.93-25.87a156.76,156.76,0,0,1,13.83-16.92c20-21.25,43-39.44,67.17-55.75,21.28-13.86,43.49-27.34,68.08-34.37,22.17-5.84,27.77,3.62,15.34,22.36-10.19,15.15-23.59,27.82-37.18,39.86,13.53-12.1,26.8-24.87,36.95-40,17.9-27.94-5-26.5-25.4-18.53C277.92,66.36,247.5,87.35,219.16,110a329.18,329.18,0,0,0-32.07,29.61c-7.32,8-14.61,16.4-19.34,26.27-11.7,26.8,25.92,13.35,37.67,8Z" style="fill:#c7c7c7"></path><path d="M360.14,118.69c-.37-2.4-.48-5.19,1.48-7s4.62-1.85,7-1.48c-.6.09-1.2.13-1.8.19a6.24,6.24,0,0,0-6.3,4.76c-.24,1.13-.21,2.38-.39,3.55Z" style="fill:#263238"></path><path d="M349.39,110.19c2.4-.37,5.19-.48,7,1.48s1.85,4.62,1.48,7c-.09-.61-.13-1.21-.19-1.81a6.24,6.24,0,0,0-4.76-6.3c-1.13-.24-2.38-.21-3.55-.39Z" style="fill:#263238"></path><path d="M357.89,99.09c.37,2.39.48,5.19-1.48,7s-4.62,1.85-7,1.48c.6-.09,1.21-.12,1.81-.18a6.27,6.27,0,0,0,6.3-4.76c.24-1.13.21-2.39.39-3.55Z" style="fill:#263238"></path><path d="M368.63,107.58c-2.39.37-5.19.48-7-1.48s-1.85-4.62-1.48-7c.09.6.12,1.2.18,1.8a6.26,6.26,0,0,0,4.76,6.3c1.13.24,2.39.21,3.55.39Z" style="fill:#263238"></path><path d="M149.22,183.27c-1-3.45,1.37-5.85,4.81-4.82-3.48.4-4.42,1.34-4.81,4.82Z" style="fill:#263238"></path><path d="M143.13,178.45c3.45-1,5.85,1.37,4.81,4.82-.39-3.48-1.34-4.43-4.81-4.82Z" style="fill:#263238"></path><path d="M147.94,172.16c1,3.45-1.37,5.85-4.81,4.81,3.48-.39,4.42-1.34,4.81-4.81Z" style="fill:#263238"></path><path d="M154,177c-3.45,1-5.85-1.37-4.81-4.81.39,3.48,1.34,4.42,4.81,4.81Z" style="fill:#263238"></path><path d="M265.67,73.8c-1-3.45,1.36-5.85,4.81-4.81-3.48.39-4.42,1.34-4.81,4.81Z" style="fill:#263238"></path><path d="M259.58,69c3.44-1,5.84,1.37,4.81,4.81-.4-3.47-1.34-4.42-4.81-4.81Z" style="fill:#263238"></path><path d="M264.39,62.7c1,3.44-1.37,5.84-4.82,4.81,3.48-.4,4.43-1.34,4.82-4.81Z" style="fill:#263238"></path><path d="M270.48,67.51c-3.45,1-5.85-1.37-4.81-4.81.39,3.47,1.33,4.42,4.81,4.81Z" style="fill:#263238"></path></g><g id="freepik--Sparkles--inject-99"><polygon points="301.02 53.88 311.52 55.82 313.86 66.88 316.21 55.82 326.7 53.87 316.25 51.32 313.86 40.87 311.47 51.32 301.02 53.88" style="fill:#FF4F91"></polygon><path d="M329.92,80.44a1.08,1.08,0,0,1,0,2.16A1.08,1.08,0,0,1,329.92,80.44Z" style="fill:#FF4F91"></path><path d="M161.44,156.45a1.08,1.08,0,0,1,0,2.16A1.08,1.08,0,0,1,161.44,156.45Z" style="fill:#FF4F91"></path><path d="M201,73.07a1.08,1.08,0,0,1,0,2.16A1.08,1.08,0,0,1,201,73.07Z" style="fill:#FF4F91"></path><path d="M180.82,146c2.66,0,2.67,4.14,0,4.14S178.14,146,180.82,146Z" style="fill:#FF4F91"></path><polygon points="162.49 114.93 169.16 116.16 170.65 123.2 172.14 116.16 178.81 114.92 172.17 113.3 170.65 106.66 169.13 113.3 162.49 114.93" style="fill:#FF4F91"></polygon><polygon points="215.78 81.52 219.51 82.21 220.35 86.14 221.18 82.21 224.91 81.52 221.19 80.61 220.35 76.89 219.5 80.61 215.78 81.52" style="fill:#FF4F91"></polygon><path d="M282.13,64.1c2.66,0,2.67,4.15,0,4.15S279.45,64.1,282.13,64.1Z" style="fill:#FF4F91"></path><path d="M353.62,134.27c2.67,0,2.67,4.15,0,4.15S351,134.27,353.62,134.27Z" style="fill:#FF4F91"></path><polygon points="309.3 141.97 313.03 142.66 313.86 146.6 314.69 142.66 318.43 141.97 314.71 141.07 313.86 137.35 313.01 141.07 309.3 141.97" style="fill:#FF4F91"></polygon></g></svg>
